# xmcd
#
# Track frame offsets: 
#        150
#        21918
#        35875
#        58317
#        73122
#        86512
#        96717
#        113171
#        127936
#        148858
#        171556
#
# Disc length: 2570 seconds
#
# Revision: 0
# Processed by: cddbd v1.5.2PL0 Copyright (c) Steve Scherf et al.
# Submitted via: ExactAudioCopy v1.0b1
#
DISCID=ad0a080b
DTITLE=Denver, John - An Evening With John Denver [CD2)
DYEAR=1975
DGENRE=Country
TTITLE0=My Sweet Lady
TTITLE1=Annie's Other Song
TTITLE2=Boy From The Country
TTITLE3=Rhymes and Reasons
TTITLE4=Forest Lawn
TTITLE5=Pickin' The Sun Down
TTITLE6=Thank God I'm A Country Boy
TTITLE7=Take Me Home, Country Roads
TTITLE8=Poems, Prayers And Promises
TTITLE9=Rocky Mountain High
TTITLE10=This Old Guitar
EXTD=
EXTT0=
EXTT1=
EXTT2=
EXTT3=
EXTT4=
EXTT5=
EXTT6=
EXTT7=
EXTT8=
EXTT9=
EXTT10=
PLAYORDER=
